<svg xmlns="http://www.w3.org/2000/svg" viewBox="0 0 90.38 66.1"><g id="Layer_2" data-name="Layer 2"><g id="Layer_1-2" data-name="Layer 1"><path d="M90.09,20.5l-14.8-7.4a12.12,12.12,0,0,0-23.2-3.8,18,18,0,0,1-4.8,6.7L.29,55.3a.79.79,0,0,0,.5,1.4h34.5c.1,0,1.3,0,3.4-.2l2,6.3c-1.2.3-2.2.7-3.1.9-2.4.8-.8,2.4-.8,2.4a15.23,15.23,0,0,1,5.2-.9c3.9-.2,8.7-.1,10.8,0a5,5,0,0,1,1.1.1c0-1.6-3.4-1.9-3.4-1.9a28,28,0,0,0-6.2-1,3.11,3.11,0,0,1-.9-.7c-.7-.9-1.2-3.5-2-5.6,10-1.6,29-7.4,29-29.3a25.28,25.28,0,0,0-.1-2.8,11.87,11.87,0,0,0,3.5-3.9l16,1.3A.48.48,0,0,0,90.09,20.5Zm-21.4-4.9a2,2,0,1,1,2-2A1.89,1.89,0,0,1,68.69,15.6Z"/><path d="M34.69,0h0a6,6,0,0,0-5.1,2.8,6.16,6.16,0,0,0-5-2.8h-.1a5.93,5.93,0,0,0-5.9,6,13,13,0,0,0,2.5,7,43.73,43.73,0,0,0,8.5,8.2,43.73,43.73,0,0,0,8.5-8.2,12.72,12.72,0,0,0,2.5-7A6,6,0,0,0,34.69,0Z"/></g></g></svg>