<?xml version="1.0" encoding="utf-8"?>
<!-- Generator: Adobe Illustrator 24.2.1, SVG Export Plug-In . SVG Version: 6.00 Build 0)  -->
<svg version="1.1" id="Layer_1" xmlns="http://www.w3.org/2000/svg" xmlns:xlink="http://www.w3.org/1999/xlink" x="0px" y="0px"
	 viewBox="0 0 100 125" style="enable-background:new 0 0 100 125;" xml:space="preserve">
<g>
	<path d="M94.9,50.1l-14.8-7.4c-0.5-6.2-5.8-11.1-12.1-11.1c-5,0-9.2,3-11.1,7.3c-1.1,2.6-2.7,4.9-4.8,6.7l-47,39.3
		c-0.6,0.5-0.2,1.4,0.5,1.4h34.5c0.1,0,1.3,0,3.4-0.2l2,6.3c-1.2,0.3-2.2,0.7-3.1,0.9c-2.4,0.8-0.8,2.4-0.8,2.4c1-0.5,3-0.8,5.2-0.9
		c3.9-0.2,8.7-0.1,10.8,0c0.7,0,1.1,0.1,1.1,0.1c0-1.6-3.4-1.9-3.4-1.9c-2.5-0.7-4.5-0.9-6.2-1c-0.3-0.2-0.7-0.4-0.9-0.7
		c-0.7-0.9-1.2-3.5-2-5.6c10-1.6,29-7.4,29-29.3c0-1,0-1.9-0.1-2.8c1.4-1,2.7-2.4,3.5-3.9l16,1.3C95.2,51.1,95.4,50.3,94.9,50.1z
		 M73.5,45.2c-1.1,0-2-0.9-2-2s0.9-2,2-2s2,0.9,2,2C75.6,44.3,74.7,45.2,73.5,45.2z"/>
	<path d="M39.5,29.6L39.5,29.6c-2.2,0-4,1.1-5.1,2.8c-1.1-1.6-2.9-2.8-5-2.8h-0.1c-3.3,0-5.9,2.7-5.9,6c0,2,0.9,4.8,2.5,7
		c3.2,4.4,8.5,8.2,8.5,8.2s5.3-3.8,8.5-8.2c1.7-2.3,2.5-5.1,2.5-7C45.4,32.3,42.7,29.6,39.5,29.6z"/>
</g>
</svg>
